<mxfile host="app.diagrams.net" modified="2023-04-23T09:47:06.993Z" agent="5.0 (Windows NT 10.0; Win64; x64) AppleWebKit/537.36 (KHTML, like Gecko) Chrome/111.0.0.0 Safari/537.36" etag="z9QciheVMkYc8bJbdorC" version="21.0.6" type="github">
  <diagram name="第 1 页" id="FEuRACgL2pKALcRmDjZ7">
    <mxGraphModel dx="714" dy="443" grid="1" gridSize="10" guides="1" tooltips="1" connect="1" arrows="1" fold="1" page="1" pageScale="1" pageWidth="1654" pageHeight="2336" math="0" shadow="0">
      <root>
        <mxCell id="0" />
        <mxCell id="1" parent="0" />
        <mxCell id="nQ9MW_NBhD44i3uCBolD-10" value="" style="rounded=0;whiteSpace=wrap;html=1;fillColor=none;dashed=1;" vertex="1" parent="1">
          <mxGeometry x="510" y="302" width="165" height="79" as="geometry" />
        </mxCell>
        <mxCell id="nQ9MW_NBhD44i3uCBolD-11" style="edgeStyle=orthogonalEdgeStyle;rounded=0;orthogonalLoop=1;jettySize=auto;html=1;exitX=0.5;exitY=0;exitDx=0;exitDy=0;entryX=0.5;entryY=1;entryDx=0;entryDy=0;" edge="1" parent="1" source="nQ9MW_NBhD44i3uCBolD-1" target="nQ9MW_NBhD44i3uCBolD-2">
          <mxGeometry relative="1" as="geometry" />
        </mxCell>
        <mxCell id="nQ9MW_NBhD44i3uCBolD-1" value="SQI Sentence" style="rounded=0;whiteSpace=wrap;html=1;" vertex="1" parent="1">
          <mxGeometry x="49" y="335" width="120" height="30" as="geometry" />
        </mxCell>
        <mxCell id="nQ9MW_NBhD44i3uCBolD-25" style="edgeStyle=orthogonalEdgeStyle;rounded=0;orthogonalLoop=1;jettySize=auto;html=1;exitX=0.5;exitY=0;exitDx=0;exitDy=0;entryX=0.5;entryY=1;entryDx=0;entryDy=0;" edge="1" parent="1" source="nQ9MW_NBhD44i3uCBolD-2" target="nQ9MW_NBhD44i3uCBolD-12">
          <mxGeometry relative="1" as="geometry" />
        </mxCell>
        <mxCell id="nQ9MW_NBhD44i3uCBolD-53" style="rounded=0;orthogonalLoop=1;jettySize=auto;html=1;exitX=1;exitY=0.5;exitDx=0;exitDy=0;entryX=0;entryY=0;entryDx=200;entryDy=30;entryPerimeter=0;" edge="1" parent="1" source="nQ9MW_NBhD44i3uCBolD-2" target="nQ9MW_NBhD44i3uCBolD-51">
          <mxGeometry relative="1" as="geometry" />
        </mxCell>
        <mxCell id="nQ9MW_NBhD44i3uCBolD-2" value="LLM" style="rounded=1;whiteSpace=wrap;html=1;" vertex="1" parent="1">
          <mxGeometry x="49" y="255" width="120" height="60" as="geometry" />
        </mxCell>
        <mxCell id="nQ9MW_NBhD44i3uCBolD-3" value="Google Sentence n" style="rounded=0;whiteSpace=wrap;html=1;" vertex="1" parent="1">
          <mxGeometry x="524" y="320" width="120" height="30" as="geometry" />
        </mxCell>
        <mxCell id="nQ9MW_NBhD44i3uCBolD-4" value="LLM" style="rounded=1;whiteSpace=wrap;html=1;" vertex="1" parent="1">
          <mxGeometry x="530" y="222" width="120" height="60" as="geometry" />
        </mxCell>
        <mxCell id="nQ9MW_NBhD44i3uCBolD-5" value="Google Sentence 2" style="rounded=0;whiteSpace=wrap;html=1;" vertex="1" parent="1">
          <mxGeometry x="533" y="328" width="120" height="30" as="geometry" />
        </mxCell>
        <mxCell id="nQ9MW_NBhD44i3uCBolD-8" value="Google Sentence 2" style="rounded=0;whiteSpace=wrap;html=1;" vertex="1" parent="1">
          <mxGeometry x="541" y="336" width="120" height="30" as="geometry" />
        </mxCell>
        <mxCell id="nQ9MW_NBhD44i3uCBolD-6" value="Google Sentence 1" style="rounded=0;whiteSpace=wrap;html=1;" vertex="1" parent="1">
          <mxGeometry x="549" y="344" width="120" height="30" as="geometry" />
        </mxCell>
        <mxCell id="nQ9MW_NBhD44i3uCBolD-13" style="edgeStyle=orthogonalEdgeStyle;rounded=0;orthogonalLoop=1;jettySize=auto;html=1;exitX=0.5;exitY=0;exitDx=0;exitDy=0;entryX=0.5;entryY=1;entryDx=0;entryDy=0;" edge="1" parent="1" source="nQ9MW_NBhD44i3uCBolD-10">
          <mxGeometry relative="1" as="geometry">
            <mxPoint x="592" y="282" as="targetPoint" />
          </mxGeometry>
        </mxCell>
        <mxCell id="nQ9MW_NBhD44i3uCBolD-23" style="edgeStyle=orthogonalEdgeStyle;rounded=0;orthogonalLoop=1;jettySize=auto;html=1;exitX=0.5;exitY=0;exitDx=0;exitDy=0;entryX=0.5;entryY=1;entryDx=0;entryDy=0;" edge="1" parent="1" source="nQ9MW_NBhD44i3uCBolD-12" target="nQ9MW_NBhD44i3uCBolD-18">
          <mxGeometry relative="1" as="geometry" />
        </mxCell>
        <mxCell id="nQ9MW_NBhD44i3uCBolD-12" value="SQI Sentence embedding" style="rounded=0;whiteSpace=wrap;html=1;fillColor=#fff2cc;strokeColor=#d6b656;" vertex="1" parent="1">
          <mxGeometry x="29" y="205" width="160" height="30" as="geometry" />
        </mxCell>
        <mxCell id="nQ9MW_NBhD44i3uCBolD-19" style="rounded=0;orthogonalLoop=1;jettySize=auto;html=1;exitX=0;exitY=0.5;exitDx=0;exitDy=0;entryX=1;entryY=0.5;entryDx=0;entryDy=0;" edge="1" parent="1" source="nQ9MW_NBhD44i3uCBolD-14" target="nQ9MW_NBhD44i3uCBolD-18">
          <mxGeometry relative="1" as="geometry" />
        </mxCell>
        <mxCell id="nQ9MW_NBhD44i3uCBolD-14" value="Google Sentence 1 embedding" style="rounded=0;whiteSpace=wrap;html=1;fillColor=#d5e8d4;strokeColor=#82b366;" vertex="1" parent="1">
          <mxGeometry x="213.5" y="174" width="175" height="20" as="geometry" />
        </mxCell>
        <mxCell id="nQ9MW_NBhD44i3uCBolD-20" style="rounded=0;orthogonalLoop=1;jettySize=auto;html=1;exitX=0;exitY=0.5;exitDx=0;exitDy=0;entryX=1;entryY=0.5;entryDx=0;entryDy=0;" edge="1" parent="1" source="nQ9MW_NBhD44i3uCBolD-15" target="nQ9MW_NBhD44i3uCBolD-18">
          <mxGeometry relative="1" as="geometry">
            <mxPoint x="359.9999999999999" y="140" as="targetPoint" />
          </mxGeometry>
        </mxCell>
        <mxCell id="nQ9MW_NBhD44i3uCBolD-15" value="Google Sentence 2 embedding" style="rounded=0;whiteSpace=wrap;html=1;fillColor=#d5e8d4;strokeColor=#82b366;" vertex="1" parent="1">
          <mxGeometry x="213.5" y="145" width="175" height="19" as="geometry" />
        </mxCell>
        <mxCell id="nQ9MW_NBhD44i3uCBolD-21" style="rounded=0;orthogonalLoop=1;jettySize=auto;html=1;exitX=0;exitY=0.5;exitDx=0;exitDy=0;entryX=1;entryY=0.5;entryDx=0;entryDy=0;" edge="1" parent="1" source="nQ9MW_NBhD44i3uCBolD-16" target="nQ9MW_NBhD44i3uCBolD-18">
          <mxGeometry relative="1" as="geometry">
            <mxPoint x="359.9999999999999" y="140" as="targetPoint" />
          </mxGeometry>
        </mxCell>
        <mxCell id="nQ9MW_NBhD44i3uCBolD-16" value="Google Sentence n embedding" style="rounded=0;whiteSpace=wrap;html=1;fillColor=#d5e8d4;strokeColor=#82b366;" vertex="1" parent="1">
          <mxGeometry x="213.5" y="100" width="175" height="20" as="geometry" />
        </mxCell>
        <mxCell id="nQ9MW_NBhD44i3uCBolD-47" style="edgeStyle=orthogonalEdgeStyle;rounded=0;orthogonalLoop=1;jettySize=auto;html=1;exitX=0.5;exitY=0;exitDx=0;exitDy=0;entryX=0;entryY=1;entryDx=0;entryDy=0;" edge="1" parent="1" source="nQ9MW_NBhD44i3uCBolD-18" target="nQ9MW_NBhD44i3uCBolD-44">
          <mxGeometry relative="1" as="geometry" />
        </mxCell>
        <mxCell id="nQ9MW_NBhD44i3uCBolD-18" value="cosine similarity" style="rounded=1;whiteSpace=wrap;html=1;" vertex="1" parent="1">
          <mxGeometry x="50" y="121" width="120" height="60" as="geometry" />
        </mxCell>
        <mxCell id="nQ9MW_NBhD44i3uCBolD-22" value="" style="shape=flexArrow;endArrow=classic;html=1;rounded=0;exitX=0.5;exitY=0;exitDx=0;exitDy=0;entryX=0;entryY=0;entryDx=110;entryDy=40;entryPerimeter=0;" edge="1" parent="1" source="nQ9MW_NBhD44i3uCBolD-4" target="nQ9MW_NBhD44i3uCBolD-26">
          <mxGeometry width="50" height="50" relative="1" as="geometry">
            <mxPoint x="539" y="238" as="sourcePoint" />
            <mxPoint x="589" y="188" as="targetPoint" />
          </mxGeometry>
        </mxCell>
        <mxCell id="nQ9MW_NBhD44i3uCBolD-32" style="rounded=0;orthogonalLoop=1;jettySize=auto;html=1;exitX=0.5;exitY=1;exitDx=0;exitDy=0;entryX=1;entryY=0.5;entryDx=0;entryDy=0;" edge="1" parent="1" source="nQ9MW_NBhD44i3uCBolD-24" target="nQ9MW_NBhD44i3uCBolD-16">
          <mxGeometry relative="1" as="geometry" />
        </mxCell>
        <mxCell id="nQ9MW_NBhD44i3uCBolD-24" value="&lt;font style=&quot;font-size: 11px;&quot;&gt;&lt;font style=&quot;font-size: 11px;&quot;&gt;Mean &lt;/font&gt;&lt;font style=&quot;font-size: 11px;&quot;&gt;pooling&lt;/font&gt;&lt;/font&gt;" style="rounded=1;whiteSpace=wrap;html=1;direction=south;fillColor=#f5f5f5;fontColor=#333333;strokeColor=#666666;" vertex="1" parent="1">
          <mxGeometry x="400" y="100" width="90" height="24" as="geometry" />
        </mxCell>
        <mxCell id="nQ9MW_NBhD44i3uCBolD-37" style="rounded=0;orthogonalLoop=1;jettySize=auto;html=1;exitX=0;exitY=0;exitDx=200;exitDy=30;exitPerimeter=0;entryX=0.5;entryY=0;entryDx=0;entryDy=0;" edge="1" parent="1" source="nQ9MW_NBhD44i3uCBolD-26">
          <mxGeometry relative="1" as="geometry">
            <mxPoint x="490" y="183" as="targetPoint" />
          </mxGeometry>
        </mxCell>
        <mxCell id="nQ9MW_NBhD44i3uCBolD-26" value="Google Sentence 1 embedding" style="shape=cube;whiteSpace=wrap;html=1;boundedLbl=1;backgroundOutline=1;darkOpacity=0.05;darkOpacity2=0.1;flipH=1;fillColor=#d5e8d4;strokeColor=#82b366;" vertex="1" parent="1">
          <mxGeometry x="500" y="148" width="200" height="40" as="geometry" />
        </mxCell>
        <mxCell id="nQ9MW_NBhD44i3uCBolD-34" style="rounded=0;orthogonalLoop=1;jettySize=auto;html=1;exitX=0;exitY=0;exitDx=200;exitDy=30;exitPerimeter=0;entryX=0.5;entryY=0;entryDx=0;entryDy=0;" edge="1" parent="1" source="nQ9MW_NBhD44i3uCBolD-27">
          <mxGeometry relative="1" as="geometry">
            <mxPoint x="490" y="153" as="targetPoint" />
          </mxGeometry>
        </mxCell>
        <mxCell id="nQ9MW_NBhD44i3uCBolD-27" value="Google Sentence 2 embedding" style="shape=cube;whiteSpace=wrap;html=1;boundedLbl=1;backgroundOutline=1;darkOpacity=0.05;darkOpacity2=0.1;flipH=1;fillColor=#d5e8d4;strokeColor=#82b366;" vertex="1" parent="1">
          <mxGeometry x="500" y="128" width="200" height="40" as="geometry" />
        </mxCell>
        <mxCell id="nQ9MW_NBhD44i3uCBolD-28" value="" style="shape=cube;whiteSpace=wrap;html=1;boundedLbl=1;backgroundOutline=1;darkOpacity=0.05;darkOpacity2=0.1;flipH=1;fillColor=#f5f5f5;strokeColor=#666666;fontColor=#333333;dashed=1;" vertex="1" parent="1">
          <mxGeometry x="500" y="108" width="200" height="40" as="geometry" />
        </mxCell>
        <mxCell id="nQ9MW_NBhD44i3uCBolD-31" style="rounded=0;orthogonalLoop=1;jettySize=auto;html=1;exitX=0;exitY=0;exitDx=200;exitDy=30;exitPerimeter=0;entryX=0.5;entryY=0;entryDx=0;entryDy=0;strokeWidth=1;targetPerimeterSpacing=0;" edge="1" parent="1" source="nQ9MW_NBhD44i3uCBolD-29">
          <mxGeometry relative="1" as="geometry">
            <mxPoint x="490" y="110" as="targetPoint" />
          </mxGeometry>
        </mxCell>
        <mxCell id="nQ9MW_NBhD44i3uCBolD-29" value="Google Sentence n embedding" style="shape=cube;whiteSpace=wrap;html=1;boundedLbl=1;backgroundOutline=1;darkOpacity=0.05;darkOpacity2=0.1;flipH=1;fillColor=#d5e8d4;strokeColor=#82b366;" vertex="1" parent="1">
          <mxGeometry x="500" y="88" width="200" height="40" as="geometry" />
        </mxCell>
        <mxCell id="nQ9MW_NBhD44i3uCBolD-17" value="&lt;p style=&quot;line-height: 40%;&quot;&gt;&lt;span style=&quot;font-size: 18px;&quot;&gt;&lt;b&gt;......&lt;/b&gt;&lt;/span&gt;&lt;/p&gt;" style="text;strokeColor=none;align=center;fillColor=none;html=1;verticalAlign=middle;whiteSpace=wrap;rounded=0;" vertex="1" parent="1">
          <mxGeometry x="559" y="120" width="60" height="30" as="geometry" />
        </mxCell>
        <mxCell id="nQ9MW_NBhD44i3uCBolD-30" value="&lt;p style=&quot;line-height: 40%;&quot;&gt;&lt;span style=&quot;font-size: 18px;&quot;&gt;&lt;b&gt;......&lt;/b&gt;&lt;/span&gt;&lt;/p&gt;" style="text;strokeColor=none;align=center;fillColor=none;html=1;verticalAlign=middle;whiteSpace=wrap;rounded=0;" vertex="1" parent="1">
          <mxGeometry x="271" y="110" width="60" height="30" as="geometry" />
        </mxCell>
        <mxCell id="nQ9MW_NBhD44i3uCBolD-35" style="rounded=0;orthogonalLoop=1;jettySize=auto;html=1;exitX=0.5;exitY=1;exitDx=0;exitDy=0;entryX=1;entryY=0.75;entryDx=0;entryDy=0;" edge="1" parent="1" source="nQ9MW_NBhD44i3uCBolD-33" target="nQ9MW_NBhD44i3uCBolD-15">
          <mxGeometry relative="1" as="geometry" />
        </mxCell>
        <mxCell id="nQ9MW_NBhD44i3uCBolD-33" value="&lt;font style=&quot;font-size: 11px;&quot;&gt;&lt;font style=&quot;font-size: 11px;&quot;&gt;Mean &lt;/font&gt;&lt;font style=&quot;font-size: 11px;&quot;&gt;pooling&lt;/font&gt;&lt;/font&gt;" style="rounded=1;whiteSpace=wrap;html=1;direction=south;fillColor=#f5f5f5;fontColor=#333333;strokeColor=#666666;" vertex="1" parent="1">
          <mxGeometry x="400" y="143" width="90" height="24" as="geometry" />
        </mxCell>
        <mxCell id="nQ9MW_NBhD44i3uCBolD-38" style="rounded=0;orthogonalLoop=1;jettySize=auto;html=1;exitX=0.5;exitY=1;exitDx=0;exitDy=0;entryX=1;entryY=0.5;entryDx=0;entryDy=0;" edge="1" parent="1" source="nQ9MW_NBhD44i3uCBolD-36" target="nQ9MW_NBhD44i3uCBolD-14">
          <mxGeometry relative="1" as="geometry" />
        </mxCell>
        <mxCell id="nQ9MW_NBhD44i3uCBolD-36" value="&lt;font style=&quot;font-size: 11px;&quot;&gt;&lt;font style=&quot;font-size: 11px;&quot;&gt;Mean &lt;/font&gt;&lt;font style=&quot;font-size: 11px;&quot;&gt;pooling&lt;/font&gt;&lt;/font&gt;" style="rounded=1;whiteSpace=wrap;html=1;direction=south;fillColor=#f5f5f5;fontColor=#333333;strokeColor=#666666;" vertex="1" parent="1">
          <mxGeometry x="400" y="173" width="90" height="24" as="geometry" />
        </mxCell>
        <mxCell id="nQ9MW_NBhD44i3uCBolD-46" value="" style="group;fillColor=#f8cecc;strokeColor=#b85450;container=0;" vertex="1" connectable="0" parent="1">
          <mxGeometry x="50" y="80" width="120" height="20" as="geometry" />
        </mxCell>
        <mxCell id="nQ9MW_NBhD44i3uCBolD-39" value="" style="whiteSpace=wrap;html=1;aspect=fixed;" vertex="1" parent="1">
          <mxGeometry x="50" y="80" width="20" height="20" as="geometry" />
        </mxCell>
        <mxCell id="nQ9MW_NBhD44i3uCBolD-40" value="" style="whiteSpace=wrap;html=1;aspect=fixed;" vertex="1" parent="1">
          <mxGeometry x="70" y="80" width="20" height="20" as="geometry" />
        </mxCell>
        <mxCell id="nQ9MW_NBhD44i3uCBolD-41" value="" style="whiteSpace=wrap;html=1;aspect=fixed;" vertex="1" parent="1">
          <mxGeometry x="90" y="80" width="20" height="20" as="geometry" />
        </mxCell>
        <mxCell id="nQ9MW_NBhD44i3uCBolD-42" value="" style="whiteSpace=wrap;html=1;aspect=fixed;" vertex="1" parent="1">
          <mxGeometry x="130" y="80" width="20" height="20" as="geometry" />
        </mxCell>
        <mxCell id="nQ9MW_NBhD44i3uCBolD-44" value="" style="whiteSpace=wrap;html=1;aspect=fixed;fillColor=#f8cecc;strokeColor=#b85450;" vertex="1" parent="1">
          <mxGeometry x="110" y="80" width="20" height="20" as="geometry" />
        </mxCell>
        <mxCell id="nQ9MW_NBhD44i3uCBolD-45" value="" style="whiteSpace=wrap;html=1;aspect=fixed;" vertex="1" parent="1">
          <mxGeometry x="150" y="80" width="20" height="20" as="geometry" />
        </mxCell>
        <mxCell id="nQ9MW_NBhD44i3uCBolD-50" value="Google content" style="text;strokeColor=none;align=center;fillColor=none;html=1;verticalAlign=middle;whiteSpace=wrap;rounded=0;" vertex="1" parent="1">
          <mxGeometry x="510" y="296" width="90" height="30" as="geometry" />
        </mxCell>
        <mxCell id="nQ9MW_NBhD44i3uCBolD-54" style="edgeStyle=orthogonalEdgeStyle;rounded=0;orthogonalLoop=1;jettySize=auto;html=1;exitX=0;exitY=0;exitDx=0;exitDy=10;exitPerimeter=0;entryX=0.5;entryY=0;entryDx=0;entryDy=0;" edge="1" parent="1" source="nQ9MW_NBhD44i3uCBolD-51" target="nQ9MW_NBhD44i3uCBolD-52">
          <mxGeometry relative="1" as="geometry" />
        </mxCell>
        <mxCell id="nQ9MW_NBhD44i3uCBolD-51" value="SQI Sentence embedding" style="shape=cube;whiteSpace=wrap;html=1;boundedLbl=1;backgroundOutline=1;darkOpacity=0.05;darkOpacity2=0.1;flipH=1;fillColor=#fff2cc;strokeColor=#d6b656;" vertex="1" parent="1">
          <mxGeometry x="201" y="255" width="200" height="40" as="geometry" />
        </mxCell>
        <mxCell id="nQ9MW_NBhD44i3uCBolD-55" style="rounded=0;orthogonalLoop=1;jettySize=auto;html=1;exitX=0.5;exitY=1;exitDx=0;exitDy=0;" edge="1" parent="1" source="nQ9MW_NBhD44i3uCBolD-52" target="nQ9MW_NBhD44i3uCBolD-12">
          <mxGeometry relative="1" as="geometry" />
        </mxCell>
        <mxCell id="nQ9MW_NBhD44i3uCBolD-52" value="&lt;font style=&quot;font-size: 11px;&quot;&gt;&lt;font style=&quot;font-size: 11px;&quot;&gt;Mean &lt;/font&gt;&lt;font style=&quot;font-size: 11px;&quot;&gt;pooling&lt;/font&gt;&lt;/font&gt;" style="rounded=1;whiteSpace=wrap;html=1;direction=south;fillColor=#f5f5f5;fontColor=#333333;strokeColor=#666666;" vertex="1" parent="1">
          <mxGeometry x="256" y="209" width="90" height="24" as="geometry" />
        </mxCell>
      </root>
    </mxGraphModel>
  </diagram>
</mxfile>
